PathFileType	4	(X/Y/Z)	33_1_51_p1_0-299_filt_butterworth.trc
DataRate	CameraRate	NumFrames	NumMarkers	Units	OrigDataRate	OrigDataStartFrame	OrigNumFrames
59.0	59.0	5	27	m	59.0	149	299
Frame#	Time	RHip			RKnee			RAnkle			RBigToe			RSmallToe			RHeel			LHip			LKnee			LAnkle			LBigToe			LSmallToe			LHeel			Neck			Head			Nose			RShoulder			RElbow			RWrist			RThumb			RIndex			RPinky			LShoulder			LElbow			LWrist			LThumb			LIndex			LPinky			
		X1	Y1	Z1	X2	Y2	Z2	X3	Y3	Z3	X4	Y4	Z4	X5	Y5	Z5	X6	Y6	Z6	X7	Y7	Z7	X8	Y8	Z8	X9	Y9	Z9	X10	Y10	Z10	X11	Y11	Z11	X12	Y12	Z12	X13	Y13	Z13	X14	Y14	Z14	X15	Y15	Z15	X16	Y16	Z16	X17	Y17	Z17	X18	Y18	Z18	X19	Y19	Z19	X20	Y20	Z20	X21	Y21	Z21	X22	Y22	Z22	X23	Y23	Z23	X24	Y24	Z24	X25	Y25	Z25	X26	Y26	Z26	X27	Y27	Z27	
149	2.52542372881356	0.2762210719197071	0.6784584389876825	0.5223822272865206	0.2742937472510677	0.25413716197871206	0.5070002540380751	0.24562654322505334	-0.20588646045152575	0.6659381407079538	0.23728941732188116	-0.16874812146356197	0.44691995807451135	0.2860902250132042	-0.1736373616114264	0.4687205461084549	0.23192445653152813	-0.29877986858998945	0.7372637847326521	0.06559373261520382	0.6682643023566142	0.5441700555027373	0.08007584497059542	0.24024862417042536	0.5442058839831969	0.10595258011139343	-0.2217123207240145	0.6890249856339921	0.11275781559474113	-0.17907544408485743	0.4543294783596152	0.07459560730890584	-0.20622556386265392	0.5129491540669768	0.09329170157773208	-0.29438285288454547	0.7675805142948273	0.20101277178744914	1.2402475135076263	0.4924452005888222	0.2128892481624535	1.473969649015235	0.41201532633886	0.19606056839276173	1.3477597007533328	0.34769666877471284	0.3605876305543947	1.1515372763000216	0.5061049690558562	0.5493595452054505	0.9549542614252237	0.5231926686268068	0.7578784853869861	0.8603045491010086	0.4212891370243269	0.8261467308949293	0.7775058793950216	0.36748113189931697	0.8506010991739952	0.7645667893853962	0.36508556203378606	0.8337388610871541	0.7447999928270274	0.4372791057489136	0.0406793018470753	1.1961314537950147	0.5386164512548485	-0.1712249170295506	1.0596384817691136	0.6542649370484569	-0.39844537930375434	1.087994951811338	0.5814950543520462	-0.47257630564042113	1.059960662874608	0.5281946652753415	-0.48973596021765675	1.0843152051913567	0.5300504949943747	-0.4972032322696073	1.0569042382339944	0.5554672800813154	
150	2.542372881355932	0.27631253414390683	0.6760289696877407	0.5239635391193628	0.2742242801692639	0.25446866212125474	0.5012438501180465	0.24649957744130063	-0.20734458919096074	0.6645583826617285	0.233115853266969	-0.16963416753861973	0.4460893058732616	0.28227126233858024	-0.17408805273109942	0.46673879895644055	0.234508030426735	-0.2990325318295304	0.7359848682592759	0.06488159743208842	0.6655286175341115	0.547068448903514	0.0786113900774161	0.23933548377046196	0.5452787262861751	0.10730972265916068	-0.2192264463019636	0.685633005883423	0.11021576680577058	-0.17936474632423807	0.454879719816019	0.07327528308166911	-0.20741913232937242	0.5138340477434528	0.09573285255653108	-0.29424286807049027	0.7679027467195044	0.19905101841366726	1.2368563068269265	0.4941729628961324	0.21289806334096906	1.4721245652984425	0.41185177151963137	0.19645916472152208	1.3445814542892816	0.3488752144051015	0.3589781266215246	1.1493664256659495	0.5076270899218099	0.5522049373691554	0.9570441715866115	0.5212903143025688	0.7663412308744766	0.8725092712901876	0.41253960788772215	0.8403712136790122	0.7949905633120062	0.36159803180840067	0.8620247340910405	0.7815713513821938	0.35983839047019234	0.8385534954457732	0.7589745835465772	0.4267283574345758	0.03901793973752452	1.1938474767166616	0.5381385464557442	-0.18136321203810568	1.0667236255710335	0.6477496507446024	-0.39887778815003716	1.1075424869186166	0.5621590605376412	-0.47153478210775085	1.0809104818529134	0.5103120605446609	-0.4893417231440833	1.1082487940792958	0.5048525526059733	-0.49900130186020936	1.0811137238885538	0.5372768869793118	
151	2.559322033898305	0.27618518080122817	0.6733693010254831	0.5262870565661913	0.27413464101009805	0.2550879682448989	0.4954644526444303	0.24733842511809964	-0.20875545893679934	0.6630122459131567	0.22863495081015206	-0.17088647411832822	0.44546568369223566	0.2791055748889013	-0.1748327570988918	0.4651719166463872	0.23712975069537817	-0.2988105532066988	0.7343769746816139	0.06429262563982867	0.6627387765668062	0.5495493266952977	0.07714137632935136	0.23881049078192731	0.5458045620533839	0.10858017605607907	-0.21677823741239546	0.682459037436278	0.1084299277801565	-0.18008888230899286	0.4567173402481282	0.07202146040735644	-0.20846069684029808	0.5148792075781563	0.09813713457073868	-0.2940034029949048	0.7680283671644833	0.19680558698488598	1.2335478675440505	0.49495688944736216	0.2124292117352072	1.4699747636164613	0.4120374525329446	0.19572613233082448	1.3416591413297716	0.3509186337305869	0.3576993420207255	1.1475860830368751	0.509854924310508	0.5562103441778	0.9598319167130678	0.5210939730226244	0.7762583361197708	0.8828969333558407	0.40879861802445483	0.8528554160545989	0.8098325408518763	0.35542685256454987	0.8706491346578934	0.7978098560955164	0.35446978303918253	0.8409804679281019	0.7739306267492952	0.4158668498208713	0.037076630025736565	1.1910964316960913	0.5374653556570328	-0.1912739101072144	1.0754894406304558	0.6369920289700817	-0.40001819566860497	1.1263480299546496	0.5411519996249978	-0.47063615706679407	1.1001250838664267	0.4924837092694092	-0.4902492058340172	1.1291975076203116	0.478532391492781	-0.5001359933661512	1.1040769808679762	0.5179103631216398	
152	2.5762711864406778	0.2758681603915085	0.670571833271682	0.5290730313325004	0.2739972734068228	0.2560462455121606	0.4897125799408485	0.24807024742760161	-0.21014828942068475	0.6615475584189984	0.22407265243102664	-0.17204281679972222	0.4444465674016557	0.27688451415072757	-0.1757360003789041	0.46397748676583545	0.23968831973072693	-0.29805806772807913	0.732437776070209	0.06383163340017083	0.6600127404077358	0.5515607782826369	0.07570296997691002	0.23862915108656013	0.5458905548291282	0.10979934373990603	-0.21448139345146716	0.6794543440612203	0.10714631765649472	-0.18117730858215894	0.4593039617417506	0.0709003502417935	-0.20915758248760874	0.5155812202920069	0.10041924173451426	-0.29356707573302443	0.7677113505850729	0.19443707925844186	1.2303230479552276	0.495216309360935	0.2113317532989599	1.4675474471747991	0.41289959175509383	0.19391312699632413	1.3388111394359248	0.3534451394273621	0.35671925379085606	1.1461076096815024	0.512363797419018	0.5609319803860632	0.9633174147415454	0.5221183388603379	0.7868861328803604	0.8907820972604505	0.4104007284972597	0.8630271253966799	0.821305870794736	0.34768392244469554	0.8770471925308851	0.8123114734371296	0.34881593384207427	0.8431474936339056	0.7887617843800842	0.4048228123826168	0.03498676570703067	1.1881163929708478	0.5366864484770705	-0.1999689646356107	1.0864043992105026	0.6226896851627473	-0.4017091311934021	1.1449312634688866	0.5207455483435872	-0.4705385068075065	1.117821436582916	0.47537099989856735	-0.49198367400362353	1.1469708743458196	0.4547104103963369	-0.5008107386859393	1.1250198591092502	0.4973435460902522	
153	2.593220338983051	0.27543811558768605	0.6677078945777719	0.5320272661303069	0.27385709224267196	0.25733804533613036	0.4839554681269309	0.24859732864646894	-0.21156151528593353	0.6604228042192437	0.21974632348439638	-0.1728755228247581	0.44287348699163953	0.2756835061887398	-0.17663702203430942	0.4631816310955927	0.24201390560869576	-0.2969703038162608	0.7304089324998265	0.06354050359750332	0.6574593604815254	0.553063910183123	0.07431392010730757	0.23866421077267638	0.5457001058997815	0.1108339563717057	-0.2126032658021243	0.6767510072536084	0.10591504579460526	-0.18304229468117506	0.46271599664008706	0.06983058138913166	-0.20980801926047973	0.5160950896734556	0.10240302163452909	-0.2929575920809167	0.7667948415993389	0.19232262158515295	1.2270666381283	0.4950084307692805	0.20945824778019306	1.4649892098273787	0.4144057052460268	0.19122545462568627	1.3359092291037074	0.3560402573770632	0.3560890056880175	1.144824082974185	0.5147354857203604	0.5658413743399346	0.9674893376068392	0.5236570173920759	0.7972359206314572	0.8965578620866178	0.41667622115384323	0.8705602531625001	0.8302742742318971	0.3388142092675988	0.8817769723220235	0.8242015488423506	0.342855132178283	0.8463884854230465	0.8022511121998225	0.39353917435313357	0.03297434392544084	1.1853076876423845	0.535943790053005	-0.20662229049341146	1.0994310637763258	0.6062737060497277	-0.4034210090102026	1.1637201078077364	0.5028265382873451	-0.47089112430605173	1.1337883114725524	0.4597165977671432	-0.49387713062649513	1.1615590611033355	0.43638707849950564	-0.5006974553560078	1.1433552603939134	0.4767306397106759	
